<?xml version="1.0" standalone="no"?>
<!DOCTYPE svg PUBLIC "-//W3C//DTD SVG 20010904//EN"
 "http://www.w3.org/TR/2001/REC-SVG-20010904/DTD/svg10.dtd">
<svg version="1.0" xmlns="http://www.w3.org/2000/svg"
 width="500.000000pt" height="500.000000pt" viewBox="0 0 500.000000 500.000000"
 preserveAspectRatio="xMidYMid meet">
<metadata>
Created by potrace 1.14, written by Peter Selinger 2001-2017
</metadata>
<g transform="translate(0.000000,500.000000) scale(0.100000,-0.100000)"
fill="#000000" stroke="none">
<path d="M0 2500 l0 -2500 2500 0 2500 0 0 2500 0 2500 -2500 0 -2500 0 0
-2500z m3683 1932 c3 -4 3 -46 0 -95 -6 -83 -7 -87 -29 -87 -23 0 -24 -4 -24
-62 0 -35 -3 -107 -7 -160 -6 -94 -7 -98 -30 -98 -20 0 -23 -5 -23 -37 0 -21
-3 -62 -6 -90 -6 -50 -8 -53 -35 -53 l-29 0 0 -89 0 -89 -60 -7 c-58 -7 -60
-8 -60 -36 0 -26 -3 -29 -35 -29 -32 0 -35 -2 -35 -30 0 -27 -3 -30 -30 -30
l-30 0 0 60 c0 59 0 60 -29 60 -26 0 -29 -3 -35 -46 -3 -26 -6 -66 -6 -90 0
-40 -2 -44 -25 -44 -24 0 -25 3 -25 60 0 59 0 60 -29 60 l-28 0 -7 92 c-3 50
-6 162 -6 250 l0 158 29 0 c27 0 29 2 35 59 6 56 9 60 34 63 22 2 28 9 30 36
3 28 7 32 33 32 26 0 29 3 29 30 l0 30 60 0 60 0 0 30 c0 28 3 30 35 30 32 0
35 3 35 29 0 28 2 29 60 36 53 6 60 9 60 29 0 13 3 26 7 29 9 10 111 9 116 -1z
m-1243 -462 c0 -27 3 -30 30 -30 27 0 30 -3 30 -29 0 -26 4 -30 33 -33 26 -2
33 -8 35 -30 3 -24 8 -27 58 -34 51 -6 54 -8 54 -35 0 -26 3 -29 35 -29 l35 0
0 -59 0 -60 33 -3 c28 -3 32 -7 35 -35 3 -29 7 -33 33 -33 29 0 29 0 29 -60
l0 -60 30 0 30 0 0 -155 0 -155 -65 0 -65 0 0 30 c0 27 -3 30 -30 30 -27 0
-30 3 -30 30 l0 30 -65 0 -65 0 0 -29 c0 -26 4 -30 33 -33 32 -3 32 -4 35 -60
l3 -58 -30 0 c-25 0 -30 4 -33 28 -3 26 -6 27 -65 30 -62 3 -63 3 -63 32 0 27
-3 30 -30 30 l-30 0 0 60 0 60 -30 0 c-29 0 -30 2 -30 43 0 23 -3 66 -6 95 -6
45 -10 52 -29 52 -19 0 -23 7 -29 52 -4 28 -4 98 0 155 7 100 7 103 30 103 24
0 24 2 24 95 l0 95 35 0 c32 0 35 -2 35 -30z m-560 -440 l0 -30 60 0 60 0 0
-30 c0 -27 3 -30 30 -30 27 0 30 -3 30 -29 0 -26 4 -30 33 -33 28 -3 32 -7 35
-35 3 -29 7 -33 33 -33 26 0 29 -3 29 -30 0 -27 3 -30 30 -30 l30 0 0 -60 0
-60 30 0 c29 0 30 -1 30 -49 0 -26 3 -69 6 -95 6 -40 10 -46 30 -46 24 0 24
-2 24 -95 l0 -95 -30 0 c-27 0 -30 -3 -30 -30 0 -27 -3 -30 -30 -30 l-30 0 0
60 0 60 -30 0 c-27 0 -30 3 -30 30 0 30 0 30 -59 30 l-58 0 -6 -47 c-3 -27 -4
-94 -2 -150 l3 -103 -34 0 c-31 0 -34 3 -34 30 0 26 -3 30 -29 30 -28 0 -29 2
-36 60 -7 58 -8 60 -36 60 -26 0 -29 3 -29 35 0 30 -3 35 -25 35 -22 0 -25 5
-31 60 -6 58 -8 60 -35 60 l-29 0 0 310 0 310 65 0 65 0 0 -30z m2430 -65 c0
-32 -2 -35 -30 -35 l-30 0 0 -60 0 -60 -30 0 c-30 0 -30 0 -30 -59 l0 -60 -32
-3 c-33 -3 -33 -4 -36 -60 l-3 -57 -59 -7 c-58 -6 -60 -8 -60 -35 0 -26 -4
-29 -30 -29 -26 0 -30 -3 -30 -29 0 -26 -3 -29 -46 -35 -26 -3 -69 -6 -95 -6
-45 0 -49 -2 -49 -24 0 -21 -6 -25 -32 -28 -28 -2 -34 -8 -36 -30 l-3 -28 -87
0 c-48 0 -131 -3 -184 -7 l-98 -6 0 31 c0 29 -1 30 -60 37 -55 6 -60 9 -60 31
0 20 5 24 30 24 28 0 30 3 30 35 0 32 3 35 29 35 28 0 29 2 36 60 7 58 8 60
36 60 26 0 29 3 29 35 0 32 2 35 30 35 l30 0 0 60 0 60 60 0 c60 0 60 0 60 29
0 28 2 29 59 36 55 6 60 9 63 33 3 27 4 27 96 30 l92 3 0 29 0 30 220 0 220 0
0 -35z m-1187 -322 c3 -25 2 -81 0 -125 l-6 -78 -30 0 c-30 0 -30 0 -24 -47 3
-27 3 -69 0 -95 -5 -45 -7 -48 -34 -48 -29 0 -29 -1 -29 -60 l0 -60 -30 0 -30
0 0 -65 0 -65 -29 0 c-28 0 -29 -2 -36 -60 -7 -58 -8 -60 -36 -60 -26 0 -29
-3 -29 -35 0 -32 -2 -35 -30 -35 -27 0 -30 -3 -30 -30 0 -27 -3 -30 -30 -30
-30 0 -30 0 -30 -59 l0 -60 -32 -3 c-29 -3 -33 -7 -36 -35 -3 -29 -7 -33 -33
-33 -26 0 -29 -3 -29 -30 0 -27 -3 -30 -30 -30 -27 0 -30 -3 -30 -30 0 -27 -3
-30 -30 -30 -28 0 -30 -3 -30 -35 0 -32 -3 -35 -29 -35 -28 0 -29 -2 -36 -60
-7 -58 -8 -60 -36 -60 -26 0 -29 -4 -29 -30 0 -27 -3 -30 -30 -30 -27 0 -30
-3 -30 -30 0 -27 -3 -30 -30 -30 -28 0 -30 -3 -30 -35 0 -32 -2 -35 -30 -35
-27 0 -30 -3 -30 -30 0 -26 -3 -30 -29 -30 -28 0 -29 -2 -36 -60 -7 -58 -8
-60 -36 -60 -26 0 -29 -3 -29 -35 0 -32 -2 -35 -30 -35 -28 0 -30 3 -30 35 0
32 2 35 30 35 l30 0 0 60 0 60 30 0 c27 0 30 3 30 30 0 26 3 30 29 30 28 0 29
2 36 59 6 55 9 60 33 63 22 2 28 9 30 36 3 28 7 32 33 32 26 0 29 3 29 30 0
27 3 30 29 30 26 0 30 4 33 33 2 26 8 33 30 35 21 3 27 9 30 30 2 22 9 28 36
30 28 3 32 7 32 33 0 26 3 29 30 29 l30 0 0 60 0 60 30 0 c28 0 30 3 30 35 0
32 2 35 30 35 27 0 30 3 30 30 0 28 3 30 35 30 l35 0 0 60 0 60 30 0 c28 0 30
3 30 35 0 32 3 35 29 35 28 0 29 2 36 60 6 54 9 60 30 60 19 0 24 6 27 33 2
26 8 33 29 35 30 3 39 33 39 130 0 51 0 52 30 52 l30 0 0 65 0 65 30 0 30 0 0
79 c0 43 3 99 6 125 6 39 10 46 29 46 19 0 23 -7 28 -47z m-2243 -303 l0 -30
90 0 90 0 0 -30 0 -30 65 0 65 0 0 -30 0 -30 60 0 c60 0 60 0 60 -29 0 -29 1
-30 65 -36 63 -7 65 -8 65 -36 0 -26 4 -29 30 -29 27 0 30 -3 30 -30 0 -27 3
-30 29 -30 26 0 30 -4 33 -32 2 -28 8 -34 31 -36 l27 -3 0 -90 0 -89 -30 0
c-27 0 -30 -3 -30 -30 0 -27 -3 -30 -30 -30 l-30 0 0 60 0 60 -60 0 -60 0 0
-30 0 -30 -94 0 -95 0 -3 -32 c-3 -29 -7 -33 -30 -32 -16 0 -84 1 -153 2
l-125 2 0 30 c0 26 -3 30 -29 30 -29 0 -30 1 -36 65 -7 63 -8 65 -36 65 l-29
0 0 245 0 245 65 0 65 0 0 -30z m2620 -370 l0 -30 79 0 c43 0 99 -3 125 -6 40
-6 46 -10 46 -30 0 -20 5 -24 30 -24 28 0 30 -3 30 -35 0 -32 2 -35 30 -35 27
0 30 -3 30 -30 l0 -30 -120 0 -120 0 0 -30 0 -30 113 0 c156 0 187 -6 187 -36
0 -20 -5 -24 -30 -24 -28 0 -30 -3 -30 -35 l0 -35 -155 0 -155 0 0 -60 0 -60
-95 0 -95 0 0 30 0 30 -60 0 -60 0 0 90 0 90 -60 0 -60 0 0 -30 0 -30 -95 0
-95 0 0 -30 c0 -28 -3 -30 -35 -30 -32 0 -35 -2 -35 -30 0 -25 -4 -30 -24 -30
-23 0 -25 5 -31 63 -4 34 -5 76 -3 92 3 26 8 30 36 33 28 3 32 7 32 33 0 29 0
29 60 29 l60 0 0 30 c0 27 3 30 29 30 26 0 30 4 33 33 3 28 7 32 36 35 26 3
32 8 32 26 0 29 33 36 163 36 l87 0 0 30 0 30 60 0 60 0 0 -30z m-2310 -440
l0 -30 -60 0 -60 0 0 30 0 30 60 0 60 0 0 -30z m2000 -60 l0 -30 -60 0 -60 0
0 30 0 30 60 0 60 0 0 -30z m-426 -536 c43 -6 46 -9 46 -35 l0 -29 95 0 95 0
0 -30 0 -30 155 0 155 0 0 -30 0 -30 125 0 125 0 0 30 0 30 65 0 65 0 0 -30 0
-30 120 0 120 0 0 -29 c0 -25 -4 -30 -27 -33 -22 -2 -29 -9 -31 -30 -3 -24 -8
-28 -33 -28 -26 0 -29 -3 -29 -30 0 -27 -3 -30 -30 -30 -27 0 -30 3 -30 30 0
27 -3 30 -30 30 -27 0 -30 3 -30 30 0 28 -3 30 -36 30 l-37 0 7 -47 c3 -26 3
-69 0 -95 -6 -45 -9 -48 -35 -48 -25 0 -29 4 -29 30 0 29 -1 29 -62 32 -60 3
-63 4 -66 31 l-3 27 -90 0 -89 0 0 -30 c0 -27 3 -30 30 -30 27 0 30 -3 30 -30
l0 -30 -65 0 -65 0 0 30 c0 28 -1 29 -57 32 -55 3 -58 4 -61 31 -3 23 -8 27
-33 27 -24 0 -29 -4 -29 -25 0 -21 -5 -25 -30 -25 -28 0 -30 -3 -30 -35 l0
-35 -65 0 -65 0 0 35 c0 32 -2 35 -30 35 -30 0 -30 1 -30 54 l0 53 46 7 c26 3
69 6 95 6 48 0 49 1 49 30 l0 30 -95 0 -95 0 0 35 c0 38 -1 39 -74 29 -43 -6
-46 -9 -46 -35 0 -29 0 -29 -65 -29 l-65 0 0 60 0 60 30 0 c27 0 30 3 30 29 0
26 4 30 33 34 57 7 123 7 171 1z m-834 -214 c0 -25 -4 -30 -25 -30 -21 0 -25
5 -25 30 0 25 4 30 25 30 21 0 25 -5 25 -30z"/>
<path d="M3627 3183 c-4 -3 -7 -16 -7 -29 0 -20 -7 -23 -60 -29 -58 -7 -60 -8
-60 -36 0 -26 -4 -29 -30 -29 -27 0 -30 -3 -30 -30 l0 -30 60 0 c60 0 60 0 60
29 0 26 4 30 33 33 28 3 32 7 35 36 3 28 7 32 33 32 26 0 29 3 29 30 0 26 -4
30 -28 30 -16 0 -32 -3 -35 -7z"/>
<path d="M3000 1220 c0 -27 3 -30 30 -30 27 0 30 3 30 30 0 27 -3 30 -30 30
-27 0 -30 -3 -30 -30z"/>
</g>
</svg>
